<?xml version="1.0" standalone="no"?>
<!DOCTYPE svg PUBLIC "-//W3C//DTD SVG 20010904//EN"
 "http://www.w3.org/TR/2001/REC-SVG-20010904/DTD/svg10.dtd">
<svg version="1.0" xmlns="http://www.w3.org/2000/svg"
 width="128.000000pt" height="128.000000pt" viewBox="0 0 128.000000 128.000000"
 preserveAspectRatio="xMidYMid meet">
<metadata>
Created by potrace 1.11, written by Peter Selinger 2001-2013
</metadata>
<g transform="translate(0.000000,128.000000) scale(0.100000,-0.100000)"
fill="#000000" stroke="none">
<path d="M0 770 l0 -480 263 0 263 0 -1 -87 -1 -88 -141 -3 -141 -3 0 -39 -1
-40 398 0 397 0 2 40 3 40 -140 0 c-102 0 -140 3 -143 13 -2 6 -3 46 -3 87 l0
75 75 2 c41 1 159 2 263 2 l187 1 0 480 0 480 -640 0 -640 0 0 -480z"/>
</g>
</svg>
